#!OML:ASF G:\JayActor3\Patient Classification 1\Patient 1\Session 6\male.ASF
:FULLY-SPECIFIED
:DEGREES
3390
root 0.556773 15.3261 -7.88467 -260.224 -75.7181 273.847
lowerback 31.6591 2.32757 -3.46851
upperback 9.58054 0.37748 -4.26459
thorax -6.44611 -0.236855 -2.87639
lowerneck 7.20137 -3.14334 -5.02152
upperneck -26.6317 -4.13299 8.14987
head -9.20939 -2.70169 4.15086
rclavicle -5.40694e-014 -4.29375e-014
rhumerus -29.9534 21.5467 -85.5877
rradius 126.548
rwrist 12.4568
rhand 4.50573 -17.2732
rfingers 7.12502
rthumb 29.8984 -44.8788
lclavicle -5.40694e-014 -4.29375e-014
lhumerus -25.3582 -9.11563 69.432
lradius 125.628
lwrist 12.5567
lhand 1.13454 37.8391
lfingers 7.12502
lthumb 26.6766 65.9792
rfemur -41.9502 -33.9116 37.2381
rtibia 56.6854
rfoot -31.7516 -23.2819
rtoes 0.399189
lfemur -56.0965 20.3073 -9.92304
ltibia 59.741
lfoot -16.4697 4.57373
ltoes 0.876607
3391
root 0.558556 15.3219 -7.87644 -260.454 -75.6964 274.297
lowerback 31.7874 2.31705 -3.48679
upperback 9.60886 0.345123 -4.2746
thorax -6.47326 -0.253888 -2.86818
lowerneck 7.25075 -3.1681 -5.04752
upperneck -26.7091 -4.15123 8.25267
head -9.24051 -2.72188 4.19851
rclavicle 6.04305e-014 -1.90833e-014
rhumerus -29.9109 21.5641 -85.5457
rradius 126.573
rwrist 12.4369
rhand 4.5266 -17.2822
rfingers 7.12502
rthumb 29.9183 -44.8842
lclavicle 6.04305e-014 -1.90833e-014
lhumerus -25.2978 -8.94252 69.3898
lradius 125.666
lwrist 12.5403
lhand 1.14966 37.8528
lfingers 7.12502
lthumb 26.6911 65.9906
rfemur -42.3077 -33.8792 37.3964
rtibia 56.7952
rfoot -31.7679 -23.3426
rtoes 0.423079
lfemur -56.4504 20.2835 -10.0397
ltibia 59.8263
lfoot -16.4702 4.52039
ltoes 0.928384
3392
root 0.560014 15.3176 -7.86879 -260.665 -75.6851 274.729
lowerback 31.9078 2.30894 -3.51935
upperback 9.63984 0.311824 -4.28526
thorax -6.49377 -0.271495 -2.8518
lowerneck 7.29663 -3.19145 -5.07806
upperneck -26.7929 -4.16602 8.36526
head -9.27308 -2.74137 4.25042
rclavicle -3.18055e-015 -9.54166e-015
rhumerus -29.8593 21.5756 -85.4959
rradius 126.6
rwrist 12.4032
rhand 4.54919 -17.2915
rfingers 7.12502
rthumb 29.9399 -44.8896
lclavicle -3.18055e-015 -9.54166e-015
lhumerus -25.2356 -8.7497 69.3464
lradius 125.707
lwrist 12.5141
lhand 1.16077 37.8531
lfingers 7.12502
lthumb 26.7017 65.9893
rfemur -42.6686 -33.8435 37.5445
rtibia 56.909
rfoot -31.7795 -23.4035
rtoes 0.45011
lfemur -56.8036 20.2668 -10.1691
ltibia 59.9103
lfoot -16.4702 4.46113
ltoes 0.977707
3393
root 0.561303 15.3131 -7.86144 -260.875 -75.6725 275.159
lowerback 32.0248 2.30012 -3.54765
upperback 9.67416 0.278928 -4.29654
thorax -6.50872 -0.289005 -2.83851
lowerneck 7.34133 -3.21692 -5.11103
upperneck -26.8846 -4.18082 8.49307
head -9.30766 -2.7627 4.30864
rclavicle 7.95139e-014 9.22361e-014
rhumerus -29.8048 21.5748 -85.4463
rradius 126.628
rwrist 12.3641
rhand 4.5548 -17.2975
rfingers 7.12502
rthumb 29.9452 -44.8947
lclavicle 7.95139e-014 9.22361e-014
lhumerus -25.1693 -8.54947 69.2966
lradius 125.753
lwrist 12.4758
lhand 1.17218 37.851
lfingers 7.12502
lthumb 26.7126 65.9856
rfemur -43.0275 -33.811 37.6924
rtibia 57.0259
rfoot -31.784 -23.4591
rtoes 0.483524
lfemur -57.1552 20.2537 -10.2967
ltibia 59.9951
lfoot -16.4698 4.39403
ltoes 1.04432
3394
root 0.56276 15.3086 -7.85431 -261.097 -75.6727 275.6
lowerback 32.1438 2.29041 -3.58651
upperback 9.71057 0.241343 -4.30824
thorax -6.52224 -0.308843 -2.81783
lowerneck 7.38634 -3.2433 -5.14995
upperneck -26.9861 -4.19586 8.63094
head -9.34521 -2.7851 4.37215
rclavicle 9.54166e-015 7.15625e-014
rhumerus -29.7507 21.568 -85.3985
rradius 126.656
rwrist 12.3256
rhand 4.54605 -17.2963
rfingers 7.12502
rthumb 29.9369 -44.8949
lclavicle 9.54166e-015 7.15625e-014
lhumerus -25.0999 -8.33565 69.2478
lradius 125.799
lwrist 12.4222
lhand 1.18862 37.8467
lfingers 7.12502
lthumb 26.7284 65.9789
rfemur -43.3891 -33.7857 37.8267
rtibia 57.1478
rfoot -31.785 -23.5046
rtoes 0.536072
lfemur -57.5068 20.2379 -10.44
ltibia 60.0786
lfoot -16.4662 4.3228
ltoes 1.123
3395
root 0.564331 15.3039 -7.8472 -261.319 -75.6776 276.036
lowerback 32.6087 2.30787 -3.6915
upperback 9.35112 0.195379 -4.39197
thorax -6.48671 -0.308928 -2.65733
lowerneck 7.43776 -3.27107 -5.1918
upperneck -27.0947 -4.21236 8.77411
head -9.3862 -2.80877 4.43899
rclavicle 3.81667e-014 5.56597e-014
rhumerus -29.7093 21.5525 -85.3569
rradius 126.683
rwrist 12.2941
rhand 4.52072 -17.2902
rfingers 7.12502
rthumb 29.9127 -44.8932
lclavicle 3.81667e-014 5.56597e-014
lhumerus -25.0368 -8.12137 69.1988
lradius 125.847
lwrist 12.3557
lhand 1.20604 37.8369
lfingers 7.12502
lthumb 26.745 65.9665
rfemur -43.744 -33.7661 37.9503
rtibia 57.2747
rfoot -31.7798 -23.5433
rtoes 0.594684
lfemur -57.8521 20.223 -10.5887
ltibia 60.1633
lfoot -16.4614 4.24987
ltoes 1.20084
